<svg width="578" height="394" viewBox="0 0 578 394" fill="none" xmlns="http://www.w3.org/2000/svg">
<path d="M127.731 140.584C132.971 140.584 137.219 136.333 137.219 131.09C137.219 125.846 132.971 121.596 127.731 121.596C122.49 121.596 118.242 125.846 118.242 131.09C118.242 136.333 122.49 140.584 127.731 140.584Z" fill="#61D248"/>
<path d="M544.644 196.817C547.304 196.817 549.461 194.659 549.461 191.997C549.461 189.335 547.304 187.177 544.644 187.177C541.983 187.177 539.827 189.335 539.827 191.997C539.827 194.659 541.983 196.817 544.644 196.817Z" stroke="#61D248" stroke-width="2" stroke-miterlimit="10"/>
<path d="M242.178 250.933C242.835 250.276 269.914 237.13 269.914 237.13L274.439 214.491L303.999 215.513L306.116 237.568L339.399 252.394" fill="#C2D9F0"/>
<path d="M305.605 231.58L304.072 215.586L274.512 214.564L273.636 219.019C276.701 222.962 280.424 226.395 284.584 229.097C288.598 231.653 293.124 233.625 297.868 233.552C300.569 233.479 303.196 232.822 305.605 231.58Z" fill="#001E50"/>
<path d="M286.263 153.364C295.897 151.904 306.116 155.409 313.196 162.055C322.027 170.307 323.706 181.7 321.881 193.312C320.787 200.542 317.648 207.626 312.32 212.665C305.313 219.311 294.729 221.794 285.314 219.603C275.898 217.412 267.797 210.62 263.271 202.076C260.498 196.671 259.038 190.683 258.892 184.621C258.819 178.925 259.987 175.2 262.687 170.453C267.797 161.617 276.19 154.898 286.263 153.364Z" fill="#C2D9F0"/>
<path d="M264.001 184.767C262.395 181.846 258.235 180.824 255.315 182.43C252.323 184.11 250.79 187.543 251.52 190.902C252.323 194.188 254.804 196.817 258.089 197.767C261.3 198.716 264.804 198.205 267.724 196.525" fill="#C2D9F0"/>
<path d="M271.3 180.239C278.015 175.712 286.847 175.492 293.708 179.801C291.445 183.161 287.723 185.352 283.708 185.644C279.767 185.936 274.147 184.475 271.3 180.239Z" fill="white"/>
<path d="M319.619 170.088C320.787 168.993 322.393 168.701 323.853 169.358C325.239 170.015 326.334 171.111 327.064 172.498C330.13 178.268 326.772 185.279 320.86 187.47" fill="#C2D9F0"/>
<path d="M271.592 180.678C278.161 176.223 286.701 176.077 293.489 180.239C294.073 180.605 294.657 179.655 294.073 179.29C286.993 174.908 278.015 175.127 271.081 179.728C270.497 180.166 271.081 181.116 271.592 180.678Z" fill="#001E50"/>
<path d="M278.088 177.391C278.015 180.97 280.862 183.891 284.365 183.964C287.504 184.037 290.204 181.773 290.788 178.706C286.847 176.807 282.395 176.369 278.088 177.391Z" fill="#001E50"/>
<path d="M298.598 174.835C300.204 174.689 301.518 175.931 301.664 177.464C301.737 178.122 301.518 178.779 301.153 179.29C300.788 179.874 301.737 180.459 302.102 179.874C303.342 178.049 302.832 175.639 301.007 174.397C300.277 173.959 299.474 173.667 298.598 173.74C297.868 173.74 297.868 174.835 298.598 174.835Z" fill="#001E50"/>
<path d="M311.955 184.767C307.43 183.599 302.613 184.475 298.744 187.177C297.649 187.908 296.7 188.857 295.825 189.806C295.387 190.318 295.825 191.267 296.555 191.048C301.664 189.441 306.846 187.835 311.955 186.228C312.831 185.936 312.466 184.548 311.59 184.84C306.481 186.447 301.299 188.054 296.19 189.66L296.919 190.902C300.569 186.666 306.262 184.84 311.663 186.228C312.028 186.301 312.393 186.009 312.466 185.571C312.466 185.206 312.32 184.913 311.955 184.767Z" fill="#ED4F2E"/>
<path d="M263.636 202.076C264.95 200.396 266.191 198.57 267.578 196.89C265.899 197.767 264.001 198.278 262.104 198.351C262.322 199.666 262.906 200.907 263.636 202.076Z" fill="#495894"/>
<path d="M262.76 182.576C262.833 183.745 264.731 184.037 265.607 183.161C266.483 182.284 266.483 180.97 266.483 179.801C266.483 178.633 266.483 177.318 267.213 176.369C268.234 175.2 269.986 175.127 271.519 175.054C280.57 174.47 288.817 167.094 290.277 158.111C292.832 162.566 297.211 166.364 302.174 167.532C307.138 168.701 312.101 167.167 314.874 162.858C308.889 156.651 300.861 152.634 292.248 151.684C283.489 150.516 274.147 152.561 267.213 158.111C260.279 163.662 256.264 172.936 257.87 181.627C259.549 181.992 261.154 182.284 262.76 182.576Z" fill="#001E50"/>
<path d="M293.197 155.774C293.343 149.786 289.255 144.381 284.146 141.241C278.891 137.955 272.468 136.859 266.41 138.32C260.498 139.854 255.243 144.381 253.272 150.224C251.301 156.066 252.834 163.077 257.359 167.167C261.885 171.257 269.329 172.06 274.439 168.628" fill="#001E50"/>
<path d="M258.454 154.314C251.885 146.865 242.689 141.241 232.762 140.949C222.836 140.657 212.471 146.28 208.968 155.555C205.975 163.662 208.603 173.302 214.807 179.217C221.011 185.133 230.354 187.396 238.82 185.717C247.287 184.037 254.732 178.56 259.695 171.549" fill="#001E50"/>
<path d="M318.086 167.97C314.437 168.189 311.152 170.161 309.254 173.229C310.714 175.2 312.904 176.515 315.312 176.734C317.429 176.88 319.546 176.223 321.225 174.835C320.422 171.622 319.765 170.745 318.086 167.97Z" fill="white"/>
<path opacity="0.46" d="M134.3 175.639H27.8818V282.117H134.3V175.639Z" fill="#001E50"/>
<path d="M134.3 224.496L119.556 256.776C116.344 263.859 119.045 272.258 125.833 276.056L134.227 280.73L134.3 224.496Z" fill="#001E50"/>
<path d="M221.23 182.138C211.303 177.902 199.844 182.576 195.684 192.509C191.45 202.441 196.121 213.907 206.048 218.069C207.8 218.8 209.697 219.311 211.595 219.53C217.069 220.041 222.47 218.361 226.777 214.929C231.01 211.497 234.003 206.677 235.171 201.345C236.63 194.846 235.609 187.981 232.251 182.211" fill="#001E50"/>
<path d="M320.86 173.594C319.327 175.346 316.845 175.931 314.729 175.054C312.758 174.032 311.809 171.768 312.32 169.65C314.218 168.774 316.335 168.262 318.378 168.189C319.254 169.942 320.349 171.841 320.86 173.594Z" fill="#001E50"/>
<path d="M200.355 236.254C201.888 241.585 207.581 244.945 213.128 245.237C217.872 245.529 222.544 243.703 225.901 240.271C232.908 232.675 228.31 219.384 218.018 217.777C208.968 216.39 197.728 227.052 200.355 236.254Z" fill="#001E50"/>
<path d="M274.95 172.425C274.804 172.425 274.731 172.352 274.658 172.279C274.585 172.133 274.585 171.987 274.731 171.841C276.774 169.869 279.548 168.774 282.395 168.774C284.365 168.774 286.336 169.285 288.015 170.38C288.161 170.453 288.234 170.672 288.161 170.818C288.088 170.965 287.942 171.038 287.796 171.038H287.723C286.847 170.892 285.898 170.818 285.022 170.818C281.665 170.892 278.234 171.403 274.95 172.425C275.023 172.352 274.95 172.352 274.95 172.425Z" fill="#001E50"/>
<path d="M282.321 169.066C284.219 169.066 286.117 169.577 287.722 170.599C286.847 170.453 285.898 170.38 284.949 170.38C281.518 170.453 278.088 171.038 274.876 171.987C276.92 170.088 279.548 169.066 282.321 169.066ZM282.321 168.335C279.329 168.335 276.482 169.431 274.365 171.476C274.147 171.695 274.074 172.06 274.22 172.352C274.365 172.571 274.584 172.717 274.876 172.717C274.949 172.717 275.022 172.717 275.095 172.717C278.307 171.695 281.664 171.184 284.949 171.111C285.825 171.111 286.701 171.184 287.576 171.33H287.649C288.087 171.33 288.379 171.038 288.379 170.599C288.379 170.38 288.233 170.088 288.014 169.942C286.409 168.92 284.365 168.335 282.321 168.335Z" fill="#001E50"/>
<path d="M199.333 252.467L179.918 242.535L199.333 124.152C199.333 124.152 176.414 111.079 177.874 84.1312C176.268 83.3279 174.298 83.9851 173.495 85.5918C173.422 85.7379 173.349 85.957 173.276 86.103C171.451 92.2376 168.021 103.922 168.24 104.58C169.407 107.72 179.626 133.792 179.626 133.792L129.263 244.287C126.052 251.371 128.753 259.77 135.541 263.567L194.151 296.139" fill="#C2D9F0"/>
<path d="M224.222 130.944C250.263 130.944 271.373 109.822 271.373 83.7661C271.373 57.7105 250.263 36.5883 224.222 36.5883C198.181 36.5883 177.071 57.7105 177.071 83.7661C177.071 109.822 198.181 130.944 224.222 130.944Z" fill="#001E50"/>
<path d="M271.3 128.023C280.652 128.023 288.234 120.437 288.234 111.08C288.234 101.722 280.652 94.1364 271.3 94.1364C261.948 94.1364 254.367 101.722 254.367 111.08C254.367 120.437 261.948 128.023 271.3 128.023Z" fill="white" stroke="#61D248" stroke-miterlimit="10"/>
<path d="M172.327 362.232H413.994C413.994 369.097 408.374 374.72 401.513 374.72H184.808C177.947 374.72 172.327 369.097 172.327 362.232Z" fill="white" stroke="#B9C6E4" stroke-miterlimit="10"/>
<path d="M458.59 131.163V135.545H454.211" stroke="#262D3D" stroke-miterlimit="10"/>
<path d="M445.963 135.545H350.931" stroke="#001E50" stroke-miterlimit="10" stroke-dasharray="11.32 11.32"/>
<path d="M346.844 135.545H342.464V131.163" stroke="#262D3D" stroke-miterlimit="10"/>
<path d="M342.464 122.91V27.8976" stroke="#001E50" stroke-miterlimit="10" stroke-dasharray="11.32 11.32"/>
<path d="M342.464 23.7349V19.3531H346.844" stroke="#262D3D" stroke-miterlimit="10"/>
<path d="M355.092 19.3531H450.05" stroke="#001E50" stroke-miterlimit="10" stroke-dasharray="11.32 11.32"/>
<path d="M454.211 19.3531H458.59V23.7349" stroke="#262D3D" stroke-miterlimit="10"/>
<path d="M458.59 31.9874V127" stroke="#001E50" stroke-miterlimit="10" stroke-dasharray="11.32 11.32"/>
<path d="M204.661 249.838H385.09C390.856 249.838 395.527 254.512 395.527 260.281V374.647H194.224V260.281C194.224 254.512 198.895 249.838 204.661 249.838Z" fill="#001E50"/>
<path d="M294.584 323.233C301.114 323.233 306.408 317.936 306.408 311.402C306.408 304.868 301.114 299.571 294.584 299.571C288.053 299.571 282.759 304.868 282.759 311.402C282.759 317.936 288.053 323.233 294.584 323.233Z" fill="white"/>
<path d="M309.693 173.448C311.663 170.38 315.094 168.482 318.743 168.482C319.035 168.482 319.327 168.262 319.327 167.897C319.327 167.532 319.108 167.313 318.743 167.313C314.656 167.313 310.933 169.431 308.744 172.863C308.379 173.521 309.328 174.032 309.693 173.448Z" fill="#001E50"/>
<path d="M454.429 202.076H512.091C520.558 202.076 527.492 208.94 527.492 217.485V266.416C527.492 274.887 520.631 281.825 512.091 281.825H454.429C445.963 281.825 439.029 274.96 439.029 266.416V217.485C439.029 208.94 445.89 202.076 454.429 202.076Z" fill="#C2D9F0"/>
<path d="M280.059 109.619H273.125V102.681H269.475V109.619H262.542V113.27H269.475V120.208H273.125V113.27H280.059V109.619Z" fill="#C2D9F0"/>
<path d="M404.359 215.44H422.898L413.629 173.667L439.029 194.553V169.577L457.13 185.717L472.75 164.611" stroke="#61D248" stroke-width="2" stroke-miterlimit="10"/>
<path d="M322.611 186.374C322.1 185.206 321.662 184.475 320.787 184.475C318.962 184.329 316.48 189.879 319.108 196.233L320.495 199.52C321.152 197.475 321.662 195.43 321.954 193.385C322.319 191.048 322.538 188.711 322.611 186.374Z" fill="#001E50"/>
<path d="M172.035 246.843L180.283 242.535C180.794 242.242 181.013 241.585 180.721 241.074C180.429 240.563 179.772 240.344 179.261 240.636C179.261 240.636 179.188 240.636 179.188 240.709L170.867 245.018C170.357 245.31 170.138 245.967 170.503 246.478C170.867 246.989 171.524 247.135 172.035 246.843Z" fill="#495894"/>
<path d="M361.004 249.838C360.712 248.961 328.304 194.7 326.188 189.514C324.071 184.329 323.925 181.481 322.1 181.335C320.276 181.189 317.794 186.739 320.422 193.093C323.049 199.446 325.604 205.581 325.604 205.581C325.604 205.581 323.122 207.407 323.852 209.817C323.852 209.817 320.057 208.356 318.743 211.935C318.378 213.249 318.524 214.71 319.254 215.878C319.254 215.878 314.291 214.053 312.32 217.704C310.86 220.479 311.079 228.659 311.225 232.31C311.298 233.917 312.028 235.451 313.269 236.546C314.656 237.715 316.772 238.153 319.035 234.428L327.137 249.838H361.004Z" fill="#C2D9F0"/>
<path d="M339.545 219.603L330.129 205.873C329.254 205.143 328.159 204.924 327.064 205.216" fill="#C2D9F0"/>
<path d="M339.545 219.603L330.129 205.873C329.254 205.143 328.159 204.924 327.064 205.216" stroke="#495894" stroke-miterlimit="10"/>
<path d="M323.853 209.89L333.414 225.518" stroke="#495894" stroke-miterlimit="10"/>
<path d="M319.254 215.951L327.21 229.9" stroke="#495894" stroke-miterlimit="10"/>
<path d="M314.729 224.204L320.203 236.546" stroke="#495894" stroke-miterlimit="10"/>
<path d="M352.61 235.597L348.231 218.288C347.647 216.097 347.063 213.907 345.603 212.154C344.143 210.401 340.348 209.671 338.158 211.424" fill="#C2D9F0"/>
<path opacity="0.21" d="M280.059 205.362C284.453 205.362 288.015 201.798 288.015 197.402C288.015 193.005 284.453 189.441 280.059 189.441C275.665 189.441 272.103 193.005 272.103 197.402C272.103 201.798 275.665 205.362 280.059 205.362Z" fill="#ED4F2E"/>
<path d="M77.8062 253.635L78.6091 235.231L63.1354 245.091L58.5371 237.203L74.8137 228.805L58.5371 220.406L63.1354 212.519L78.6091 222.597L77.8062 204.193H86.8568L86.054 222.597L101.528 212.519L106.126 220.406L89.7034 228.805L106.126 237.203L101.528 245.091L86.054 235.158L86.8568 253.562L77.8062 253.635Z" fill="white"/>
<path d="M473.042 264.809L487.202 281.825L474.502 282.117L473.042 264.809Z" fill="#001E50"/>
<path d="M473.699 300.521C474.429 300.886 475.377 300.594 475.742 299.864C475.888 299.644 475.961 299.352 475.888 299.06L474.501 282.19L473.042 264.882C472.969 264.079 472.239 263.421 471.436 263.567C471.217 263.567 471.071 263.64 470.852 263.713L455.67 272.185L440.854 280.437C440.124 280.803 439.832 281.752 440.27 282.482C440.416 282.774 440.635 282.92 440.854 283.067L448.298 287.083L435.379 311.11L453.262 320.677L466.181 296.504L473.699 300.521Z" fill="white" stroke="#61D248" stroke-width="2" stroke-miterlimit="10"/>
<path d="M52.1871 99.7598C51.6032 86.6143 63.5004 74.2721 76.7114 74.3451C89.9225 74.4182 101.601 86.9794 100.798 100.125C100.36 107.282 95.1047 115.023 88.0247 114.585C81.0178 114.147 76.8574 106.186 76.7844 99.1755C76.6385 82.7437 94.0098 68.5757 110.067 72.0082" stroke="#001E50" stroke-width="2" stroke-miterlimit="10"/>
<path d="M406.695 54.6269L409.541 62.076C410.198 63.9017 411.95 65.1433 413.848 65.2163L421.803 65.5815C424.504 65.7275 426.548 67.9915 426.475 70.6936C426.402 72.0812 425.745 73.3957 424.65 74.2721L418.373 79.3112C416.84 80.5527 416.183 82.5245 416.694 84.4233L418.811 92.0916C419.541 94.7207 418.008 97.3498 415.38 98.0801C413.994 98.4452 412.607 98.2261 411.439 97.4228L404.797 93.041C403.191 91.9455 401.075 91.9455 399.469 93.041L392.827 97.4228C390.564 98.8834 387.572 98.2992 386.039 96.0352C385.236 94.8667 385.017 93.4061 385.382 92.0916L387.499 84.4233C388.01 82.5245 387.353 80.5527 385.82 79.3112L379.616 74.3451C377.499 72.6654 377.207 69.5981 378.886 67.4802C379.762 66.3848 381.076 65.7275 382.462 65.6545L390.418 65.2893C392.389 65.2163 394.068 63.9748 394.797 62.076L397.644 54.6269C398.593 52.1438 401.439 50.8293 403.921 51.7787C405.162 52.2899 406.184 53.3123 406.695 54.6269Z" stroke="#F7C689" stroke-miterlimit="10"/>
<path d="M472.458 228.148V255.023L483.99 247.135L495.45 255.023V228.148H472.458Z" fill="#001E50"/>
</svg>
